<svg xmlns="http://www.w3.org/2000/svg"  viewBox="0 0 100 100" width="100px" height="100px"><path d="M36.5,92c-3.584,0-6.5-2.916-6.5-6.5v-5c0-0.892,0.18-1.742,0.507-2.516	H18.608c-5.252,0-9.525-4.273-9.525-9.525V21.516c0-5.238,4.262-9.5,9.5-9.5h66.833c5.238,0,9.5,4.262,9.5,9.5v46.943	c0,5.252-4.273,9.525-9.525,9.525H73.493C73.82,78.758,74,79.608,74,80.5v5c0,3.584-2.916,6.5-6.5,6.5H36.5z" opacity=".35"/><path fill="#f2f2f2" d="M34.5,90c-3.584,0-6.5-2.916-6.5-6.5v-5c0-0.892,0.18-1.742,0.507-2.516H16.608	c-5.252,0-9.525-4.273-9.525-9.525V19.516c0-5.238,4.262-9.5,9.5-9.5h66.833c5.238,0,9.5,4.262,9.5,9.5v46.943	c0,5.252-4.273,9.525-9.525,9.525H71.493C71.82,76.758,72,77.608,72,78.5v5c0,3.584-2.916,6.5-6.5,6.5H34.5z"/><polygon fill="#707cc0" points="60.5,78.5 60.5,69.5 39.5,69.5 39.5,78.5 34.5,78.5 34.5,83.5 65.5,83.5 65.5,78.5"/><path fill="#d9eeff" d="M87,66H13.583V21c0-2.761,2.239-5,5-5H82c2.761,0,5,2.239,5,5V66z"/><rect width="22" height="3" x="39.262" y="71" fill="#40396e" opacity=".35"/><path fill="#40396e" d="M83.32,70.984H16.68c-2.534,0-4.596-2.062-4.596-4.596V19.516c0-2.481,2.019-4.5,4.5-4.5h66.833	c2.481,0,4.5,2.019,4.5,4.5v46.872C87.917,68.922,85.854,70.984,83.32,70.984z M16.583,18.016c-0.827,0-1.5,0.673-1.5,1.5v46.872	c0,0.88,0.716,1.596,1.596,1.596H83.32c0.88,0,1.596-0.716,1.596-1.596V19.516c0-0.827-0.673-1.5-1.5-1.5H16.583z"/><path fill="#40396e" d="M65.5,85h-31c-0.829,0-1.5-0.671-1.5-1.5v-5c0-0.829,0.671-1.5,1.5-1.5H38v-7.5	c0-0.829,0.671-1.5,1.5-1.5h21c0.829,0,1.5,0.671,1.5,1.5V77h3.5c0.829,0,1.5,0.671,1.5,1.5v5C67,84.329,66.329,85,65.5,85z M36,82	h28v-2h-3.5c-0.829,0-1.5-0.671-1.5-1.5V71H41v7.5c0,0.829-0.671,1.5-1.5,1.5H36V82z"/><path fill="#40396e" d="M81.079,71H18.921C15.651,71,13,68.349,13,65.079V65h74v0.079C87,68.349,84.349,71,81.079,71z"/><path fill="#40396e" d="M50,35.51c-3.308,0-5.99,2.682-5.99,5.99s2.682,5.99,5.99,5.99s5.99-2.682,5.99-5.99	S53.308,35.51,50,35.51z"/><path fill="none" stroke="#40396e" stroke-linecap="round" stroke-linejoin="round" stroke-miterlimit="10" stroke-width="3" d="M70.964,27.526H59.925c-2.845-1.89-6.255-2.995-9.925-2.995s-7.08,1.105-9.925,2.995H29.036"/><path fill="none" stroke="#40396e" stroke-linecap="round" stroke-linejoin="round" stroke-miterlimit="10" stroke-width="3" d="M73.958,33.516H57.905c-2.11-1.858-4.873-2.995-7.905-2.995s-5.795,1.137-7.905,2.995H26.042"/><path fill="none" stroke="#40396e" stroke-linecap="round" stroke-linejoin="round" stroke-miterlimit="10" stroke-width="3" d="M29.036,55.521h11.039c2.845,1.89,6.255,2.995,9.925,2.995s7.08-1.105,9.925-2.995h11.039"/><path fill="none" stroke="#40396e" stroke-linecap="round" stroke-linejoin="round" stroke-miterlimit="10" stroke-width="3" d="M26.042,49.531h16.054c2.11,1.858,4.873,2.995,7.905,2.995s5.795-1.137,7.905-2.995h16.054"/></svg>